<svg xmlns="http://www.w3.org/2000/svg" width="20" height="20" viewBox="0 0 32 32">
    <path fill="#0082f0" d="M14.742 27.924l-2.304 1.833 1.246 1.567 5.15-4.1-4.099-5.152-1.564 1.246 2.065 2.596c-5.179-.391-9.233-4.69-9.233-9.935 0-2.756 1.119-5.251 2.929-7.055L7.518 7.51c-2.171 2.171-3.515 5.171-3.515 8.484 0 6.182 4.676 11.273 10.685 11.926l.053.005zM19.568 2.23L18.322.664l-5.15 4.1 4.099 5.15 1.564-1.246-2.067-2.597c5.18.392 9.235 4.691 9.235 9.937 0 2.757-1.119 5.252-2.928 7.056l1.414 1.414c2.172-2.171 3.515-5.171 3.515-8.485 0-6.182-4.675-11.272-10.683-11.927l-.053-.005z"/>
</svg>
