<svg xmlns="http://www.w3.org/2000/svg" width="80" height="74" viewBox="0 0 80 74">
    <g fill="none" fill-rule="evenodd">
        <path fill="#242424" fill-rule="nonzero"
              d="M70 10.5H11.5v4.75h67V10.5H70zM11.5 65v7.5h67V16.75h-67V65zm57-56V1.5h-67v62H10V9h58.5zM70 9h10v65H10v-9H0V0h70v9zM40.298 25.5h9.362v4.917c.803.253 1.58.57 2.325.949l3.48-3.48 6.62 6.621-3.472 3.467c.386.746.709 1.524.966 2.324H64.5v9.36h-4.917c-.254.804-.57 1.581-.95 2.325l3.48 3.482-6.62 6.616-3.469-3.47c-.746.386-1.522.71-2.322.967V64.5h-9.36v-4.916a15.174 15.174 0 0 1-2.327-.951l-3.48 3.482-6.616-6.622 3.437-3.437-.442-1.031c-.04-.092-.078-.185-.116-.279l-.445-1.044H25.5V40.34h4.917c.254-.804.571-1.582.95-2.326l-3.477-3.482 6.617-6.617 3.469 3.472a15.233 15.233 0 0 1 2.322-.966V25.5zm1.5 1.5v4.558a13.745 13.745 0 0 0-4.076 1.697l-3.216-3.218-4.495 4.496 3.217 3.223a13.787 13.787 0 0 0-1.667 4.084H27v6.362h4.562c.182.774.426 1.521.73 2.232l.02-.008-.015.012c.27.634.59 1.248.959 1.84l-3.216 3.216 4.496 4.499 3.22-3.224a13.679 13.679 0 0 0 4.086 1.67V63h6.36v-4.56a13.744 13.744 0 0 0 4.076-1.696l3.216 3.216 4.498-4.495-3.22-3.223a13.767 13.767 0 0 0 1.667-4.084H63v-6.36h-4.56a13.673 13.673 0 0 0-1.695-4.078l3.218-3.213-4.499-4.5-3.22 3.221a13.76 13.76 0 0 0-4.084-1.668V27h-6.362zM45 51a6 6 0 1 1 0-12 6 6 0 0 1 0 12zm0-1.5a4.5 4.5 0 1 0 0-9 4.5 4.5 0 0 0 0 9z"
              opacity=".4"/>
        <circle cx="15" cy="13" r="1" stroke="#242424" opacity=".4"/>
        <circle cx="19" cy="13" r="1" stroke="#242424" opacity=".4"/>
        <circle cx="23" cy="13" r="1" stroke="#242424" opacity=".4"/>
    </g>
</svg>
