<?xml version="1.0" encoding="utf-8"?>
<!-- Generator: Adobe Illustrator 16.0.3, SVG Export Plug-In . SVG Version: 6.00 Build 0)  -->
<!DOCTYPE svg PUBLIC "-//W3C//DTD SVG 1.1//EN" "http://www.w3.org/Graphics/SVG/1.1/DTD/svg11.dtd">
<svg version="1.1" id="Layer_1" xmlns="http://www.w3.org/2000/svg" xmlns:xlink="http://www.w3.org/1999/xlink" x="0px" y="0px"
	 width="26px" height="24px" viewBox="0 0 26 24" enable-background="new 0 0 26 24" xml:space="preserve">
<g>
	<g>
		<rect x="5" y="6" fill="#0497BB" width="16" height="2"/>
		<path fill="#0497BB" d="M11,10H5v2h4.7C9.7,12,10,11,11,10z"/>
		<path fill="#0497BB" d="M1,1v16h14c-1,0-3-1-3-3H4V4h18v10h-3c0,2-2,3-3,3h9V1H1z"/>
	</g>
	<polygon fill-rule="evenodd" clip-rule="evenodd" fill="#0497BB" points="18,17 22,21 20,21 20,23 16,19 	"/>
	<polygon fill-rule="evenodd" clip-rule="evenodd" fill="#0497BB" points="14,17 10,21 12,21 12,23 16,19 	"/>
	<path fill-rule="evenodd" clip-rule="evenodd" fill="#0497BB" d="M20,14.5c0-2.484-2.015-4.5-4.5-4.5S11,12.016,11,14.5
		s2.015,4.5,4.5,4.5S20,16.984,20,14.5z M18,14.5c0-1.38-1.119-2.5-2.5-2.5S13,13,13,14.5s1.119,2.5,2.5,2.5S18,15.88,18,14.5z"/>
</g>
</svg>
