<?xml version="1.0" encoding="utf-8"?>
<!-- Generator: Adobe Illustrator 16.0.3, SVG Export Plug-In . SVG Version: 6.00 Build 0)  -->
<!DOCTYPE svg PUBLIC "-//W3C//DTD SVG 1.1//EN" "http://www.w3.org/Graphics/SVG/1.1/DTD/svg11.dtd">
<svg version="1.1" id="Layer_1" xmlns="http://www.w3.org/2000/svg" xmlns:xlink="http://www.w3.org/1999/xlink" x="0px" y="0px"
	 width="83.063px" height="26px" viewBox="0 0 83.063 26" enable-background="new 0 0 83.063 26" xml:space="preserve">
<g id="pillango_13_">
	<g>
		<g>
			<polygon opacity="0.2" fill="#FFFFFF" points="7.74,2.282 6.783,13.262 10.788,14.762 6.354,18.164 6.088,21.219 14.718,14.27 
							"/>
			<polygon opacity="0.2" fill="#FFFFFF" points="18.568,14.762 22.573,13.262 21.616,2.282 14.638,14.27 23.267,21.219 23,18.164 
							"/>
			<polygon opacity="0.2" fill="#FFFFFF" points="2.591,2.908 4.967,12.581 10.788,14.762 6.34,18.175 7.744,23.888 14.717,14.271 
							"/>
			<polygon opacity="0.2" fill="#FFFFFF" points="18.568,14.762 24.389,12.581 26.766,2.908 14.639,14.271 21.612,23.888 
				23.015,18.175 			"/>
			<polygon opacity="0.2" fill="#FFFFFF" points="2.048,7.849 4.956,12.577 10.788,14.762 7.739,17.101 11.672,23.496 
				14.715,14.268 			"/>
			<polygon opacity="0.3" fill="#FFFFFF" points="18.568,14.762 24.4,12.577 27.309,7.849 14.641,14.268 17.684,23.496 
				21.617,17.102 			"/>
		</g>
		<g>
			<path fill="#FFFFFF" d="M5.846,21.674l0.315-3.617l4.213-3.235l-3.807-1.426L7.594,1.629l7.386,12.688L5.846,21.674z
				 M6.549,18.271l-0.218,2.493l8.125-6.543L7.887,2.935l-0.889,10.19l4.202,1.575L6.549,18.271z"/>
			<path fill="#FFFFFF" d="M23.509,21.674l-9.134-7.357l7.387-12.688l1.026,11.767l-3.808,1.426l4.214,3.235L23.509,21.674z
				 M14.9,14.22l8.124,6.543l-0.218-2.493l-4.651-3.57l4.203-1.575L21.47,2.935L14.9,14.22z"/>
			<path fill="#FFFFFF" d="M7.651,24.36l-1.539-6.264l4.262-3.273l-5.579-2.09L2.232,2.294l12.753,11.95L7.651,24.36z M6.569,18.255
				l1.268,5.162l6.612-9.121L2.95,3.521l2.188,8.908l6.062,2.271L6.569,18.255z"/>
			<path fill="#FFFFFF" d="M21.704,24.36l-7.333-10.116l12.753-11.95L24.56,12.733l-5.58,2.09l4.262,3.273L21.704,24.36z
				 M14.908,14.296l6.611,9.121l1.267-5.161l-4.63-3.555l6.062-2.271l2.188-8.908L14.908,14.296z"/>
			<path fill="#FFFFFF" d="M11.729,23.973l-4.257-6.921l2.903-2.229L4.82,12.742L1.5,7.344l13.461,6.823L11.729,23.973z
				 M8.008,17.15l3.609,5.868l2.851-8.648L2.595,8.353l2.497,4.059l6.108,2.289L8.008,17.15z"/>
			<path fill="#FFFFFF" d="M17.628,23.973l-3.233-9.806l13.461-6.823l-3.32,5.398l-0.065,0.024l-5.491,2.056l2.904,2.229
				L17.628,23.973z M14.889,14.37l2.851,8.648l3.61-5.868l-3.193-2.45l6.108-2.289l2.497-4.059L14.889,14.37z"/>
		</g>
	</g>
	<g>
		<g>
			<g>
				<path fill="#FFFFFF" d="M34.693,5.711h2.549c1.007,0,1.918,0.407,2.579,1.067c0.66,0.661,1.068,1.572,1.068,2.579l-0.016,3.597
					l0.341,0.342c0.028-0.034,0.046-0.077,0.046-0.123l0.015-3.814v0c0-2.228-1.805-4.034-4.034-4.034h-2.936L34.693,5.711z"/>
				<path fill="#FFFFFF" d="M41.228,13.594l-0.557-0.557l0.016-3.681c0-0.919-0.359-1.784-1.009-2.435
					c-0.652-0.65-1.516-1.009-2.436-1.009h-2.633l-0.791-0.792h3.424c2.335,0,4.236,1.901,4.236,4.237l-0.016,3.815
					c-0.001,0.091-0.034,0.181-0.093,0.251L41.228,13.594z"/>
			</g>
			<g>
				<path fill="#FFFFFF" d="M33.558,13.256c0.013-0.025,0.021-0.054,0.021-0.083l0.014-6.399l-0.387-0.387l-0.014,6.502
					L33.558,13.256z"/>
				<path fill="#FFFFFF" d="M33.618,13.601l-0.629-0.628l0.015-7.073l0.79,0.79l-0.013,6.483c0,0.058-0.014,0.115-0.04,0.17
					L33.618,13.601z"/>
			</g>
			<g>
				<path fill="#FFFFFF" d="M49.203,12.978h-1.877c-1.008,0-1.918-0.408-2.58-1.068c-0.66-0.661-1.067-1.572-1.067-2.58
					c0-0.006-0.002-0.01-0.002-0.016c0-0.005,0.002-0.01,0.002-0.016c0-1.008,0.407-1.919,1.067-2.579
					c0.662-0.661,1.572-1.068,2.58-1.069c1.007,0,1.918,0.408,2.579,1.069c0.617,0.618,1.014,1.454,1.063,2.384h-3.475
					c-0.043,0-0.083,0.016-0.115,0.04l0.348,0.349h3.398c0.007,0,0.014-0.001,0.021-0.002c0.007,0,0.014,0.002,0.021,0.002
					c0.107,0,0.194-0.087,0.194-0.193c0-2.229-1.807-4.035-4.034-4.035c-2.229,0-4.035,1.806-4.035,4.035
					c0,0.005,0.001,0.011,0.002,0.016c0,0.006-0.002,0.01-0.002,0.016c0,2.207,1.771,3.999,3.971,4.033
					c0.006,0,0.011,0.002,0.016,0.002h2.312L49.203,12.978z"/>
				<path fill="#FFFFFF" d="M50.079,13.567l-2.831-0.001c-2.294-0.042-4.159-1.939-4.159-4.235l0-0.018c0-0.004,0-0.01,0-0.014
					c0-2.336,1.901-4.237,4.237-4.237c2.335,0,4.236,1.901,4.236,4.237c0,0.217-0.177,0.396-0.396,0.396
					c-0.007,0-0.014,0-0.021-0.001c-0.007,0-0.015,0.001-0.021,0.001h-3.481l-0.575-0.574l0.188-0.139
					c0.07-0.052,0.151-0.079,0.236-0.079h3.255c-0.088-0.77-0.434-1.487-0.986-2.039c-0.651-0.651-1.516-1.009-2.436-1.01
					c-0.92,0.001-1.785,0.359-2.436,1.01c-0.65,0.65-1.008,1.516-1.008,2.436L43.88,9.317c0.001,0.005,0.001,0.009,0.001,0.014
					c0,0.919,0.358,1.786,1.009,2.437c0.65,0.65,1.516,1.009,2.436,1.009h1.96L50.079,13.567z M51.163,9.306l-0.011,0.185
					l0.024-0.185H51.163z"/>
			</g>
			<g>
				<path fill="#FFFFFF" d="M63.772,7.668v5.463l-0.372,0.371c-0.011-0.023-0.016-0.049-0.016-0.078V8.055L63.772,7.668z"/>
				<path fill="#FFFFFF" d="M63.333,13.855l-0.118-0.273c-0.022-0.05-0.033-0.103-0.033-0.158V7.972l0.792-0.792v6.035
					L63.333,13.855z"/>
			</g>
			<g>
				<path fill="#FFFFFF" d="M63.769,5.478c0.002,0.013,0.004,0.026,0.004,0.039v0.642l-0.388,0.387V5.861L63.769,5.478z"/>
				<path fill="#FFFFFF" d="M63.183,7.034V5.776l0.703-0.703l0.081,0.361c0.005,0.027,0.008,0.055,0.008,0.083v0.726L63.183,7.034z"
					/>
			</g>
			<g>
				<path fill="#FFFFFF" d="M54.94,7.387c-0.009-0.032-0.022-0.062-0.047-0.087l-1.44-1.436h-0.549l1.529,1.523H54.94z"/>
				<path fill="#FFFFFF" d="M55.204,7.59h-0.855l-1.934-1.928h1.122l1.5,1.495c0.048,0.048,0.081,0.107,0.1,0.178L55.204,7.59z"/>
			</g>
			<g>
				<path fill="#FFFFFF" d="M53.325,13.396l3.544-3.559c0.006,0.009,0.01,0.019,0.018,0.026l3.518,3.533h0.489
					c-0.006-0.039-0.02-0.078-0.05-0.109L57.162,9.59c-0.008-0.008-0.019-0.011-0.028-0.018l3.693-3.708H60.28l-7.393,7.423
					c-0.03,0.031-0.045,0.07-0.051,0.109H53.325z"/>
				<path fill="#FFFFFF" d="M61.127,13.598h-0.807l-3.456-3.47l-3.456,3.47h-0.808l0.035-0.231c0.012-0.087,0.05-0.164,0.108-0.222
					l7.451-7.483h1.118l-3.89,3.905l3.563,3.578c0.058,0.058,0.095,0.136,0.108,0.222L61.127,13.598z"/>
			</g>
			<g>
				<path fill="#FFFFFF" d="M67.023,5.473c0.005,0.017,0.009,0.035,0.009,0.053v4.057c0,1.008,0.408,1.918,1.067,2.579
					c0.662,0.66,1.572,1.068,2.58,1.068c1.008,0,1.918-0.408,2.578-1.068c0.662-0.661,1.069-1.571,1.069-2.579V5.819L74.7,5.445
					c0.008,0.022,0.014,0.047,0.014,0.071v4.067c0,2.229-1.806,4.035-4.035,4.035c-2.228,0-4.035-1.806-4.035-4.035V5.851
					L67.023,5.473z"/>
				<path fill="#FFFFFF" d="M70.679,13.82L70.679,13.82c-2.335,0-4.237-1.9-4.237-4.237V5.767l0.681-0.68l0.095,0.33
					c0.011,0.038,0.017,0.074,0.017,0.109v4.057c0,0.92,0.358,1.785,1.008,2.437c0.651,0.651,1.517,1.009,2.436,1.009
					c0.92,0,1.786-0.358,2.436-1.009c0.65-0.651,1.009-1.517,1.009-2.437V5.735l0.651-0.65l0.113,0.287
					c0.02,0.047,0.027,0.096,0.027,0.145v4.067C74.915,11.92,73.016,13.82,70.679,13.82z"/>
			</g>
			<g>
				<path fill="#FFFFFF" d="M79.147,9.282c0,0-0.006-0.001-0.01-0.001c-0.492,0-0.937-0.199-1.259-0.521
					c-0.322-0.324-0.522-0.768-0.522-1.26c0-0.492,0.2-0.937,0.522-1.26c0.323-0.322,0.767-0.521,1.259-0.521h0.764
					c0.034,0,0.066-0.01,0.095-0.024l-0.362-0.363h-0.496c-1.197,0-2.168,0.972-2.168,2.169c0,1.191,0.961,2.158,2.151,2.167
					c0.004,0,0.006,0.002,0.009,0.002c0.493,0,0.937,0.198,1.26,0.521c0.323,0.324,0.522,0.768,0.522,1.26
					c0,0.492-0.2,0.936-0.522,1.259c-0.323,0.323-0.767,0.522-1.26,0.522h-1.975l0.388,0.387h1.587c1.197,0,2.168-0.97,2.168-2.168
					C81.297,10.258,80.337,9.292,79.147,9.282"/>
				<path fill="#FFFFFF" d="M79.129,13.82h-1.671l-0.792-0.792h2.464c0.421,0,0.818-0.164,1.117-0.463
					c0.298-0.298,0.463-0.695,0.463-1.116c0-0.422-0.165-0.818-0.463-1.116c-0.299-0.298-0.696-0.463-1.117-0.463l-0.025-0.001
					c-1.29-0.02-2.336-1.079-2.336-2.37c0-1.307,1.063-2.371,2.371-2.372h0.58l0.609,0.611l-0.233,0.13
					c-0.059,0.034-0.126,0.051-0.192,0.051h-0.764c-0.421,0.001-0.818,0.166-1.116,0.463c-0.298,0.299-0.463,0.696-0.463,1.117
					c0,0.421,0.165,0.818,0.463,1.117c0.298,0.297,0.695,0.461,1.116,0.461L79.16,9.08c1.292,0.017,2.34,1.078,2.34,2.37
					C81.5,12.757,80.437,13.82,79.129,13.82z"/>
			</g>
		</g>
		<g>
			<path fill="#FFFFFF" d="M51.349,20.43c-0.112,0-0.202-0.091-0.202-0.202v-1.863c0-0.112,0.09-0.203,0.202-0.203
				c0.111,0,0.202,0.091,0.202,0.203v1.863C51.55,20.339,51.46,20.43,51.349,20.43z"/>
			<path fill="#FFFFFF" d="M49.101,21.625h-0.849c-0.112,0-0.202-0.091-0.202-0.203c0-0.111,0.09-0.202,0.202-0.202h0.849
				c0.111,0,0.202,0.091,0.202,0.202C49.303,21.535,49.212,21.625,49.101,21.625z"/>
			<path fill="#FFFFFF" d="M48.291,21.625c-1.798,0-3.26-1.462-3.26-3.26c0-0.112,0.09-0.203,0.202-0.203
				c0.111,0,0.202,0.091,0.202,0.203c0,1.575,1.281,2.855,2.856,2.855c0.111,0,0.202,0.091,0.202,0.202
				C48.492,21.535,48.402,21.625,48.291,21.625z"/>
			<path fill="#FFFFFF" d="M51.349,18.542c-0.112,0-0.202-0.091-0.202-0.203c0-1.575-1.282-2.856-2.856-2.856
				c-1.575,0-2.856,1.281-2.856,2.856c0,0.112-0.09,0.203-0.202,0.203c-0.112,0-0.202-0.091-0.202-0.203
				c0-1.798,1.462-3.261,3.26-3.261c1.798,0,3.26,1.462,3.26,3.261C51.55,18.451,51.46,18.542,51.349,18.542z"/>
			<path fill="#FFFFFF" d="M81.125,18.567h-1.863c-0.112,0-0.203-0.091-0.203-0.202c0-0.112,0.09-0.203,0.203-0.203h1.863
				c0.112,0,0.202,0.091,0.202,0.203C81.328,18.476,81.237,18.567,81.125,18.567z"/>
			<path fill="#FFFFFF" d="M78.911,15.483h-0.848c-0.112,0-0.202-0.091-0.202-0.202c0-0.112,0.09-0.203,0.202-0.203h0.848
				c0.112,0,0.202,0.09,0.202,0.203C79.113,15.392,79.023,15.483,78.911,15.483z"/>
			<path fill="#FFFFFF" d="M75.042,18.542c-0.112,0-0.203-0.091-0.203-0.203c0-1.798,1.463-3.261,3.261-3.261
				c0.112,0,0.203,0.09,0.203,0.203c0,0.111-0.091,0.202-0.203,0.202c-1.574,0-2.855,1.281-2.855,2.856
				C75.245,18.451,75.154,18.542,75.042,18.542z"/>
			<path fill="#FFFFFF" d="M78.101,21.625c-1.797,0-3.261-1.462-3.261-3.26c0-0.112,0.091-0.203,0.203-0.203
				s0.203,0.091,0.203,0.203c0,1.575,1.282,2.855,2.855,2.855c1.575,0,2.856-1.281,2.856-2.855c0-0.112,0.09-0.203,0.202-0.203
				s0.203,0.091,0.203,0.203C81.361,20.163,79.898,21.625,78.101,21.625z"/>
			<path fill="#FFFFFF" d="M44.12,18.542h-3.155c-0.112,0-0.203-0.091-0.203-0.203c0-0.111,0.091-0.202,0.203-0.202h3.155
				c0.111,0,0.202,0.091,0.202,0.202C44.321,18.451,44.23,18.542,44.12,18.542z"/>
			<path fill="#FFFFFF" d="M43.196,21.625h-2.139c-0.112,0-0.203-0.091-0.203-0.203c0-0.111,0.091-0.202,0.203-0.202h2.139
				c0.112,0,0.202,0.091,0.202,0.202C43.398,21.535,43.308,21.625,43.196,21.625z"/>
			<path fill="#FFFFFF" d="M41.095,21.625c-1.798,0-3.26-1.462-3.26-3.26c0-0.112,0.09-0.203,0.202-0.203
				c0.112,0,0.202,0.091,0.202,0.203c0,1.575,1.282,2.855,2.856,2.855c0.112,0,0.203,0.091,0.203,0.202
				C41.297,21.535,41.207,21.625,41.095,21.625z"/>
			<path fill="#FFFFFF" d="M44.153,18.542c-0.112,0-0.202-0.091-0.202-0.203c0-1.575-1.281-2.856-2.856-2.856
				c-1.575,0-2.856,1.281-2.856,2.856c0,0.112-0.09,0.203-0.202,0.203c-0.112,0-0.202-0.091-0.202-0.203
				c0-1.798,1.462-3.261,3.26-3.261s3.26,1.462,3.26,3.261C44.354,18.451,44.265,18.542,44.153,18.542z"/>
			<path fill="#FFFFFF" d="M52.724,21.551c-0.112,0-0.202-0.091-0.202-0.203v-3.386c0-1.412,1.147-2.561,2.56-2.561h1.704
				c0.112,0,0.202,0.091,0.202,0.203c0,0.111-0.09,0.202-0.202,0.202h-1.704c-1.189,0-2.155,0.968-2.155,2.156v3.386
				C52.927,21.46,52.836,21.551,52.724,21.551z"/>
			<path fill="#FFFFFF" d="M37.255,21.551h-1.704c-1.412,0-2.56-1.148-2.56-2.56v-3.894c0-0.112,0.091-0.203,0.203-0.203
				c0.111,0,0.203,0.09,0.203,0.203v3.894c0,1.188,0.966,2.155,2.155,2.155h1.704c0.112,0,0.202,0.09,0.202,0.203
				C37.457,21.46,37.367,21.551,37.255,21.551z"/>
			<path fill="#FFFFFF" d="M73.336,21.648c-0.112,0-0.203-0.091-0.203-0.202v-2.854c0-1.575-1.282-2.856-2.855-2.856h-2.856v5.663
				c0,0.112-0.091,0.202-0.203,0.202c-0.112,0-0.202-0.09-0.202-0.202v-6.067h3.261c1.797,0,3.26,1.463,3.26,3.261v2.854
				C73.538,21.557,73.446,21.648,73.336,21.648z"/>
			<path fill="#FFFFFF" d="M64.083,21.648c-0.111,0-0.202-0.091-0.202-0.202v-2.854c0-1.575-1.281-2.856-2.856-2.856h-2.855v5.663
				c0,0.112-0.091,0.202-0.203,0.202c-0.111,0-0.202-0.09-0.202-0.202v-6.067h3.26c1.799,0,3.261,1.463,3.261,3.261v2.854
				C64.286,21.557,64.196,21.648,64.083,21.648z"/>
			<path fill="#FFFFFF" d="M65.343,15.968c-0.112,0-0.202-0.091-0.202-0.203v-0.437c0-0.112,0.09-0.202,0.202-0.202
				c0.111,0,0.202,0.09,0.202,0.202v0.437C65.545,15.876,65.454,15.968,65.343,15.968z"/>
			<path fill="#FFFFFF" d="M65.343,21.569c-0.112,0-0.202-0.091-0.202-0.202v-3.983c0-0.112,0.09-0.203,0.202-0.203
				c0.111,0,0.202,0.091,0.202,0.203v3.983C65.545,21.478,65.454,21.569,65.343,21.569z"/>
		</g>
	</g>
</g>
</svg>
