<?xml version="1.0" encoding="utf-8"?>
<!-- Generator: Adobe Illustrator 16.0.0, SVG Export Plug-In . SVG Version: 6.00 Build 0)  -->
<!DOCTYPE svg PUBLIC "-//W3C//DTD SVG 1.1//EN" "http://www.w3.org/Graphics/SVG/1.1/DTD/svg11.dtd">
<svg version="1.1" id="Layer_1" xmlns="http://www.w3.org/2000/svg" xmlns:xlink="http://www.w3.org/1999/xlink" x="0px" y="0px"
	 width="135px" height="50px" viewBox="0 0 135 50" enable-background="new 0 0 135 50" xml:space="preserve">
<g>
	<defs>
		<rect id="SVGID_1_" x="25" y="14.397" width="85" height="21.205"/>
	</defs>
	<clipPath id="SVGID_2_">
		<use xlink:href="#SVGID_1_"  overflow="visible"/>
	</clipPath>
	<g clip-path="url(#SVGID_2_)">
		<defs>
			<rect id="SVGID_3_" x="25" y="14.397" width="85" height="21.205"/>
		</defs>
		<clipPath id="SVGID_4_">
			<use xlink:href="#SVGID_3_"  overflow="visible"/>
		</clipPath>
		<path clip-path="url(#SVGID_4_)" fill="#FFFFFF" d="M59.827,31.334c0.088-0.623,0.375-1.202,0.826-1.656
			c0.552-0.551,1.283-0.854,2.062-0.854c0.777,0,1.511,0.303,2.063,0.854c0.45,0.451,0.737,1.033,0.823,1.656H59.827z
			 M62.715,28.016c-2.01,0-3.636,1.563-3.72,3.563l-0.005,0.052v0.242l0.005,0.053c0.08,1.886,1.594,3.436,3.476,3.556
			c0.022,0.006,0.044,0.008,0.066,0.008h2.593c0.149,0,0.27-0.12,0.27-0.269v-0.27c0-0.148-0.12-0.269-0.27-0.269h-2.415
			c-0.778-0.002-1.51-0.304-2.062-0.855c-0.458-0.458-0.746-1.048-0.828-1.684h6.344c0.148,0,0.27-0.121,0.27-0.271v-0.135
			C66.438,29.686,64.769,28.016,62.715,28.016"/>
		<path clip-path="url(#SVGID_4_)" fill="none" stroke="#FFFFFF" stroke-width="0.924" stroke-miterlimit="10" d="M59.827,31.334
			c0.088-0.623,0.375-1.202,0.826-1.656c0.552-0.551,1.283-0.854,2.062-0.854c0.777,0,1.511,0.303,2.063,0.854
			c0.45,0.451,0.737,1.033,0.823,1.656H59.827z M62.715,28.016c-2.01,0-3.636,1.563-3.72,3.563l-0.005,0.052v0.242l0.005,0.053
			c0.08,1.886,1.594,3.436,3.476,3.556c0.022,0.006,0.044,0.008,0.066,0.008h2.593c0.149,0,0.27-0.12,0.27-0.269v-0.27
			c0-0.148-0.12-0.269-0.27-0.269h-2.415c-0.778-0.002-1.51-0.304-2.062-0.855c-0.458-0.458-0.746-1.048-0.828-1.684h6.344
			c0.148,0,0.27-0.121,0.27-0.271v-0.135C66.438,29.686,64.769,28.016,62.715,28.016z"/>
		<path clip-path="url(#SVGID_4_)" fill="#FFFFFF" d="M81.28,28.022h-1.986c-1.633,0-2.962,1.331-2.962,2.965v4.233
			c0,0.148,0.121,0.269,0.27,0.269h0.271c0.147,0,0.269-0.12,0.269-0.269v-4.233c0-0.577,0.223-1.116,0.631-1.526
			c0.406-0.405,0.947-0.63,1.522-0.63h1.986c0.147,0,0.267-0.119,0.267-0.267v-0.272C81.547,28.144,81.428,28.022,81.28,28.022"/>
		<path clip-path="url(#SVGID_4_)" fill="none" stroke="#FFFFFF" stroke-width="0.924" stroke-miterlimit="10" d="M81.28,28.022
			h-1.986c-1.633,0-2.962,1.331-2.962,2.965v4.233c0,0.148,0.121,0.269,0.27,0.269h0.271c0.147,0,0.269-0.12,0.269-0.269v-4.233
			c0-0.577,0.223-1.116,0.631-1.526c0.406-0.405,0.947-0.63,1.522-0.63h1.986c0.147,0,0.267-0.119,0.267-0.267v-0.272
			C81.547,28.144,81.428,28.022,81.28,28.022z"/>
		<path clip-path="url(#SVGID_4_)" fill="#FFFFFF" d="M58.647,34.683h-1.985c-0.575,0-1.117-0.225-1.524-0.631
			c-0.407-0.407-0.63-0.95-0.63-1.526v-4.233c0-0.148-0.121-0.27-0.269-0.27h-0.271c-0.147,0-0.269,0.121-0.269,0.27v4.233
			c0.001,1.636,1.331,2.964,2.963,2.964h1.985c0.148,0,0.268-0.12,0.268-0.269v-0.27C58.915,34.802,58.796,34.683,58.647,34.683"/>
		<path clip-path="url(#SVGID_4_)" fill="none" stroke="#FFFFFF" stroke-width="0.924" stroke-miterlimit="10" d="M58.647,34.683
			h-1.985c-0.575,0-1.117-0.225-1.524-0.631c-0.407-0.407-0.63-0.95-0.63-1.526v-4.233c0-0.148-0.121-0.27-0.269-0.27h-0.271
			c-0.147,0-0.269,0.121-0.269,0.27v4.233c0.001,1.636,1.331,2.964,2.963,2.964h1.985c0.148,0,0.268-0.12,0.268-0.269v-0.27
			C58.915,34.802,58.796,34.683,58.647,34.683z"/>
		<path clip-path="url(#SVGID_4_)" fill="#FFFFFF" d="M97.594,28.022h-3.455c-0.148,0-0.27,0.121-0.27,0.27v6.929
			c0,0.148,0.121,0.269,0.27,0.269h0.271c0.148,0,0.268-0.12,0.268-0.269v-6.39h2.916c0.777,0,1.51,0.305,2.061,0.854
			c0.551,0.552,0.854,1.283,0.854,2.062v3.474c0,0.148,0.119,0.269,0.268,0.269h0.271c0.146,0,0.27-0.12,0.27-0.269v-3.474
			C101.316,29.692,99.646,28.022,97.594,28.022"/>
		<path clip-path="url(#SVGID_4_)" fill="none" stroke="#FFFFFF" stroke-width="0.924" stroke-miterlimit="10" d="M97.594,28.022
			h-3.455c-0.148,0-0.27,0.121-0.27,0.27v6.929c0,0.148,0.121,0.269,0.27,0.269h0.271c0.148,0,0.268-0.12,0.268-0.269v-6.39h2.916
			c0.777,0,1.51,0.305,2.061,0.854c0.551,0.552,0.854,1.283,0.854,2.062v3.474c0,0.148,0.119,0.269,0.268,0.269h0.271
			c0.146,0,0.27-0.12,0.27-0.269v-3.474C101.316,29.692,99.646,28.022,97.594,28.022z"/>
		<path clip-path="url(#SVGID_4_)" fill="#FFFFFF" d="M86.597,28.022h-3.454c-0.15,0-0.269,0.121-0.269,0.27v6.929
			c0,0.148,0.118,0.269,0.269,0.269h0.271c0.149,0,0.268-0.12,0.268-0.269v-6.39h2.916c0.778,0,1.51,0.305,2.06,0.854
			c0.553,0.55,0.855,1.283,0.855,2.062v3.474c0,0.148,0.12,0.269,0.269,0.269h0.271c0.148,0,0.269-0.12,0.269-0.269v-3.474
			C90.319,29.692,88.648,28.022,86.597,28.022"/>
		<path clip-path="url(#SVGID_4_)" fill="none" stroke="#FFFFFF" stroke-width="0.924" stroke-miterlimit="10" d="M86.597,28.022
			h-3.454c-0.15,0-0.269,0.121-0.269,0.27v6.929c0,0.148,0.118,0.269,0.269,0.269h0.271c0.149,0,0.268-0.12,0.268-0.269v-6.39h2.916
			c0.778,0,1.51,0.305,2.06,0.854c0.553,0.55,0.855,1.283,0.855,2.062v3.474c0,0.148,0.12,0.269,0.269,0.269h0.271
			c0.148,0,0.269-0.12,0.269-0.269v-3.474C90.319,29.692,88.648,28.022,86.597,28.022z"/>
		<path clip-path="url(#SVGID_4_)" fill="#FFFFFF" d="M92.23,28.022H91.96c-0.148,0-0.269,0.121-0.269,0.27v6.929
			c0,0.148,0.12,0.269,0.269,0.269h0.271c0.149,0,0.269-0.12,0.269-0.269v-6.929C92.499,28.144,92.38,28.022,92.23,28.022"/>
		<path clip-path="url(#SVGID_4_)" fill="none" stroke="#FFFFFF" stroke-width="0.924" stroke-miterlimit="10" d="M92.23,28.022
			H91.96c-0.148,0-0.269,0.121-0.269,0.27v6.929c0,0.148,0.12,0.269,0.269,0.269h0.271c0.149,0,0.269-0.12,0.269-0.269v-6.929
			C92.499,28.144,92.38,28.022,92.23,28.022z"/>
		<path clip-path="url(#SVGID_4_)" fill="#FFFFFF" d="M89.433,14.512h-0.74c-0.149,0-0.271,0.119-0.271,0.271v9.795
			c0,0.148,0.121,0.27,0.271,0.27h0.74c0.148,0,0.27-0.121,0.27-0.27v-9.795C89.702,14.631,89.581,14.512,89.433,14.512"/>
		<path clip-path="url(#SVGID_4_)" fill="none" stroke="#FFFFFF" stroke-width="0.924" stroke-miterlimit="10" d="M89.433,14.512
			h-0.74c-0.149,0-0.271,0.119-0.271,0.271v9.795c0,0.148,0.121,0.27,0.271,0.27h0.74c0.148,0,0.27-0.121,0.27-0.27v-9.795
			C89.702,14.631,89.581,14.512,89.433,14.512z"/>
		<path clip-path="url(#SVGID_4_)" fill="#FFFFFF" d="M58.758,14.504H53.97c-0.149,0-0.271,0.121-0.271,0.271v9.809
			c0,0.15,0.121,0.271,0.271,0.271h0.746c0.148,0,0.271-0.121,0.271-0.271v-8.8h3.771c1.003,0,1.947,0.393,2.658,1.103
			c0.71,0.709,1.102,1.654,1.102,2.658l-0.015,5.044c0,0.071,0.029,0.141,0.079,0.191c0.051,0.051,0.119,0.08,0.191,0.08h0.754
			c0.148,0,0.269-0.121,0.269-0.271v-5.044C63.796,16.766,61.536,14.504,58.758,14.504"/>
		<path clip-path="url(#SVGID_4_)" fill="none" stroke="#FFFFFF" stroke-width="0.924" stroke-miterlimit="10" d="M58.758,14.504
			H53.97c-0.149,0-0.271,0.121-0.271,0.271v9.809c0,0.15,0.121,0.271,0.271,0.271h0.746c0.148,0,0.271-0.121,0.271-0.271v-8.8h3.771
			c1.003,0,1.947,0.393,2.658,1.103c0.71,0.709,1.102,1.654,1.102,2.658l-0.015,5.044c0,0.071,0.029,0.141,0.079,0.191
			c0.051,0.051,0.119,0.08,0.191,0.08h0.754c0.148,0,0.269-0.121,0.269-0.271v-5.044C63.796,16.766,61.536,14.504,58.758,14.504z"/>
		<path clip-path="url(#SVGID_4_)" fill="#FFFFFF" d="M70.135,15.815c1.028,0,1.996,0.401,2.725,1.129
			c0.568,0.568,0.944,1.301,1.074,2.086h-7.6c0.131-0.785,0.506-1.518,1.072-2.086C68.136,16.217,69.104,15.815,70.135,15.815
			 M70.135,14.536c-2.833,0-5.137,2.304-5.137,5.172c0,2.788,2.269,5.092,5.078,5.136h3.09c0.149,0,0.271-0.12,0.271-0.27v-0.742
			c0-0.149-0.121-0.267-0.271-0.267h-3.031c-1.029,0-1.999-0.403-2.728-1.132c-0.576-0.575-0.953-1.32-1.078-2.122h8.301
			c0.354,0,0.64-0.288,0.64-0.642C75.269,16.84,72.965,14.536,70.135,14.536"/>
		<path clip-path="url(#SVGID_4_)" fill="none" stroke="#FFFFFF" stroke-width="0.924" stroke-miterlimit="10" d="M70.135,15.815
			c1.028,0,1.996,0.401,2.725,1.129c0.568,0.568,0.944,1.301,1.074,2.086h-7.6c0.131-0.785,0.506-1.518,1.072-2.086
			C68.136,16.217,69.104,15.815,70.135,15.815z M70.135,14.536c-2.833,0-5.137,2.304-5.137,5.172c0,2.788,2.269,5.092,5.078,5.136
			h3.09c0.149,0,0.271-0.12,0.271-0.27v-0.742c0-0.149-0.121-0.267-0.271-0.267h-3.031c-1.029,0-1.999-0.403-2.728-1.132
			c-0.576-0.575-0.953-1.32-1.078-2.122h8.301c0.354,0,0.64-0.288,0.64-0.642C75.269,16.84,72.965,14.536,70.135,14.536z"/>
		<path clip-path="url(#SVGID_4_)" fill="#FFFFFF" d="M101.188,14.513h-0.74c-0.148,0-0.27,0.12-0.27,0.271v5.019
			c0,1.005-0.391,1.948-1.102,2.66c-0.711,0.708-1.656,1.103-2.66,1.103s-1.947-0.395-2.658-1.103
			c-0.709-0.71-1.102-1.655-1.102-2.66v-5.019c0-0.151-0.122-0.271-0.271-0.271h-0.739c-0.149,0-0.271,0.12-0.271,0.271v5.019
			c0.002,2.78,2.264,5.041,5.041,5.041c2.781,0,5.041-2.261,5.041-5.041v-5.019C101.457,14.633,101.336,14.513,101.188,14.513"/>
		<path clip-path="url(#SVGID_4_)" fill="none" stroke="#FFFFFF" stroke-width="0.924" stroke-miterlimit="10" d="M101.188,14.513
			h-0.74c-0.148,0-0.27,0.12-0.27,0.271v5.019c0,1.005-0.391,1.948-1.102,2.66c-0.711,0.708-1.656,1.103-2.66,1.103
			s-1.947-0.395-2.658-1.103c-0.709-0.71-1.102-1.655-1.102-2.66v-5.019c0-0.151-0.122-0.271-0.271-0.271h-0.739
			c-0.149,0-0.271,0.12-0.271,0.271v5.019c0.002,2.78,2.264,5.041,5.041,5.041c2.781,0,5.041-2.261,5.041-5.041v-5.019
			C101.457,14.633,101.336,14.513,101.188,14.513z"/>
		<path clip-path="url(#SVGID_4_)" fill="#FFFFFF" d="M86.477,14.51h-1.043c-0.072,0-0.141,0.028-0.191,0.081l-4.267,4.278
			l-4.279-4.279c-0.05-0.052-0.118-0.08-0.19-0.08h-1.047c-0.109,0-0.208,0.067-0.249,0.166c-0.043,0.104-0.02,0.219,0.059,0.295
			l4.805,4.803l-4.588,4.604c-0.077,0.078-0.101,0.192-0.059,0.295c0.042,0.101,0.141,0.166,0.249,0.166h1.044
			c0.072,0,0.142-0.027,0.192-0.079l4.055-4.067l4.055,4.067c0.051,0.052,0.121,0.079,0.192,0.079h1.043
			c0.109,0,0.208-0.065,0.25-0.166c0.042-0.103,0.02-0.217-0.059-0.295l-4.577-4.592l4.798-4.814c0.076-0.076,0.1-0.191,0.06-0.295
			C86.685,14.577,86.587,14.51,86.477,14.51"/>
		<path clip-path="url(#SVGID_4_)" fill="none" stroke="#FFFFFF" stroke-width="0.924" stroke-miterlimit="10" d="M86.477,14.51
			h-1.043c-0.072,0-0.141,0.028-0.191,0.081l-4.267,4.278l-4.279-4.279c-0.05-0.052-0.118-0.08-0.19-0.08h-1.047
			c-0.109,0-0.208,0.067-0.249,0.166c-0.043,0.104-0.02,0.219,0.059,0.295l4.805,4.803l-4.588,4.604
			c-0.077,0.078-0.101,0.192-0.059,0.295c0.042,0.101,0.141,0.166,0.249,0.166h1.044c0.072,0,0.142-0.027,0.192-0.079l4.055-4.067
			l4.055,4.067c0.051,0.052,0.121,0.079,0.192,0.079h1.043c0.109,0,0.208-0.065,0.25-0.166c0.042-0.103,0.02-0.217-0.059-0.295
			l-4.577-4.592l4.798-4.814c0.076-0.076,0.1-0.191,0.06-0.295C86.685,14.577,86.587,14.51,86.477,14.51z"/>
		<path clip-path="url(#SVGID_4_)" fill="#FFFFFF" d="M106.229,17.97l-0.588-0.007c-0.678,0-1.23-0.487-1.23-1.087
			s0.553-1.088,1.23-1.088h2.111c0.148,0,0.27-0.119,0.27-0.271v-0.738c0-0.149-0.121-0.271-0.27-0.271h-2.111
			c-1.385,0-2.51,1.062-2.51,2.367s1.125,2.366,2.504,2.366l0.586,0.008c1.322,0,2.395,0.971,2.395,2.161
			c0,1.195-1.072,2.165-2.395,2.165h-3.531c-0.15,0-0.27,0.12-0.27,0.27v0.739c0,0.148,0.119,0.27,0.27,0.27h3.531
			c2.027,0,3.676-1.545,3.676-3.443C109.896,19.516,108.25,17.97,106.229,17.97"/>
		<path clip-path="url(#SVGID_4_)" fill="none" stroke="#FFFFFF" stroke-width="0.924" stroke-miterlimit="10" d="M106.229,17.97
			l-0.588-0.007c-0.678,0-1.23-0.487-1.23-1.087s0.553-1.088,1.23-1.088h2.111c0.148,0,0.27-0.119,0.27-0.271v-0.738
			c0-0.149-0.121-0.271-0.27-0.271h-2.111c-1.385,0-2.51,1.062-2.51,2.367s1.125,2.366,2.504,2.366l0.586,0.008
			c1.322,0,2.395,0.971,2.395,2.161c0,1.195-1.072,2.165-2.395,2.165h-3.531c-0.15,0-0.27,0.12-0.27,0.27v0.739
			c0,0.148,0.119,0.27,0.27,0.27h3.531c2.027,0,3.676-1.545,3.676-3.443C109.896,19.516,108.25,17.97,106.229,17.97z"/>
		<path clip-path="url(#SVGID_4_)" fill="#FFFFFF" d="M71.284,34.683c-1.616,0-2.931-1.316-2.931-2.932
			c0-1.616,1.314-2.931,2.931-2.931c1.615,0,2.931,1.314,2.931,2.931C74.215,33.366,72.899,34.683,71.284,34.683 M74.754,28.022
			h-0.271c-0.149,0-0.269,0.121-0.269,0.27v1.144c-0.686-0.866-1.743-1.424-2.931-1.424c-2.063,0-3.74,1.677-3.74,3.739
			c0,2.062,1.678,3.738,3.74,3.738c1.188,0,2.245-0.557,2.931-1.423v1.154c0,0.148,0.119,0.269,0.269,0.269h0.271
			c0.149,0,0.269-0.12,0.269-0.269v-6.929C75.022,28.144,74.903,28.022,74.754,28.022"/>
		<path clip-path="url(#SVGID_4_)" fill="none" stroke="#FFFFFF" stroke-width="0.924" stroke-miterlimit="10" d="M71.284,34.683
			c-1.616,0-2.931-1.316-2.931-2.932c0-1.616,1.314-2.931,2.931-2.931c1.615,0,2.931,1.314,2.931,2.931
			C74.215,33.366,72.899,34.683,71.284,34.683z M74.754,28.022h-0.271c-0.149,0-0.269,0.121-0.269,0.27v1.144
			c-0.686-0.866-1.743-1.424-2.931-1.424c-2.063,0-3.74,1.677-3.74,3.739c0,2.062,1.678,3.738,3.74,3.738
			c1.188,0,2.245-0.557,2.931-1.423v1.154c0,0.148,0.119,0.269,0.269,0.269h0.271c0.149,0,0.269-0.12,0.269-0.269v-6.929
			C75.022,28.144,74.903,28.022,74.754,28.022z"/>
		<path clip-path="url(#SVGID_4_)" fill="#FFFFFF" d="M109.795,31.566c-0.051-0.05-0.121-0.078-0.191-0.078h-0.252h-0.018h-3.199
			c-0.148,0-0.27,0.119-0.27,0.269v0.271c0,0.148,0.121,0.27,0.27,0.27h2.879c-0.258,1.355-1.449,2.386-2.879,2.386
			c-1.615,0-2.928-1.315-2.928-2.929c0-1.617,1.313-2.932,2.928-2.932c0.779,0,1.514,0.308,2.07,0.863
			c0.049,0.052,0.117,0.08,0.188,0.08l0,0c0.072,0,0.141-0.028,0.191-0.079l0.191-0.19c0.105-0.106,0.105-0.275,0.002-0.379
			c-0.707-0.711-1.646-1.102-2.643-1.102c-2.061,0-3.736,1.676-3.736,3.738c0,2.059,1.676,3.735,3.736,3.735
			s3.736-1.676,3.738-3.732C109.873,31.686,109.844,31.616,109.795,31.566"/>
		<path clip-path="url(#SVGID_4_)" fill="none" stroke="#FFFFFF" stroke-width="0.924" stroke-miterlimit="10" d="M109.795,31.566
			c-0.051-0.05-0.121-0.078-0.191-0.078h-0.252h-0.018h-3.199c-0.148,0-0.27,0.119-0.27,0.269v0.271c0,0.148,0.121,0.27,0.27,0.27
			h2.879c-0.258,1.355-1.449,2.386-2.879,2.386c-1.615,0-2.928-1.315-2.928-2.929c0-1.617,1.313-2.932,2.928-2.932
			c0.779,0,1.514,0.308,2.07,0.863c0.049,0.052,0.117,0.08,0.188,0.08l0,0c0.072,0,0.141-0.028,0.191-0.079l0.191-0.19
			c0.105-0.106,0.105-0.275,0.002-0.379c-0.707-0.711-1.646-1.102-2.643-1.102c-2.061,0-3.736,1.676-3.736,3.738
			c0,2.059,1.676,3.735,3.736,3.735s3.736-1.676,3.738-3.732C109.873,31.686,109.844,31.616,109.795,31.566z"/>
		<path clip-path="url(#SVGID_4_)" fill="#FFFFFF" d="M30.766,15.007l-0.458-0.041l-0.893,10.231
			c-0.018,0.207,0.104,0.399,0.297,0.473l2.956,1.106l-3.474,2.665c-0.103,0.079-0.167,0.195-0.178,0.324l-0.248,2.848
			c-0.016,0.185,0.079,0.359,0.242,0.447c0.164,0.087,0.362,0.068,0.506-0.048l8.044-6.477c0.177-0.144,0.224-0.395,0.109-0.591
			l-6.504-11.171c-0.101-0.174-0.303-0.261-0.499-0.218c-0.196,0.043-0.341,0.21-0.358,0.409L30.766,15.007l-0.398,0.231
			l6.305,10.828l-6.894,5.551l0.137-1.569l3.971-3.047c0.133-0.102,0.2-0.268,0.175-0.434c-0.024-0.165-0.137-0.304-0.294-0.363
			l-3.405-1.275l0.862-9.883L30.766,15.007l-0.398,0.231L30.766,15.007z"/>
		<path clip-path="url(#SVGID_4_)" fill="#FFFFFF" d="M40.858,26.636l0.161,0.432l3.733-1.397c0.194-0.073,0.315-0.266,0.297-0.473
			l-0.892-10.231c-0.018-0.199-0.164-0.366-0.358-0.409c-0.196-0.043-0.398,0.044-0.499,0.218l-6.503,11.171
			c-0.115,0.197-0.069,0.447,0.109,0.591l8.043,6.477c0.144,0.116,0.342,0.135,0.506,0.048c0.163-0.088,0.258-0.263,0.242-0.447
			l-0.25-2.848c-0.012-0.129-0.075-0.245-0.178-0.324l-4.131-3.171L40.858,26.636l0.161,0.432L40.858,26.636L40.577,27l3.97,3.048
			l0.138,1.569l-6.894-5.551l5.574-9.574l0.735,8.438l-3.405,1.274c-0.157,0.06-0.269,0.198-0.294,0.363
			c-0.025,0.166,0.042,0.332,0.175,0.433L40.858,26.636z"/>
	</g>
	<path clip-path="url(#SVGID_2_)" fill="#FFFFFF" d="M29.878,19.886l-0.169,1.945l0.886,0.449l0.139-1.595L29.878,19.886z
		 M31.229,30.45l-0.95,0.765l0.243,0.987l1.194-0.962L31.229,30.45z"/>
	<g clip-path="url(#SVGID_2_)">
		<defs>
			<rect id="SVGID_5_" x="25" y="14.397" width="85" height="21.205"/>
		</defs>
		<clipPath id="SVGID_6_">
			<use xlink:href="#SVGID_5_"  overflow="visible"/>
		</clipPath>
		<path clip-path="url(#SVGID_6_)" fill="#FFFFFF" d="M25.966,15.589l-0.447,0.109l2.215,9.017c0.037,0.147,0.143,0.268,0.286,0.321
			l4.647,1.74l-3.486,2.677c-0.146,0.11-0.211,0.297-0.167,0.475l1.309,5.324c0.042,0.174,0.183,0.308,0.359,0.342
			c0.176,0.033,0.356-0.037,0.461-0.182l6.498-8.964c0.137-0.188,0.111-0.448-0.058-0.606l-11.302-10.59
			c-0.149-0.14-0.372-0.164-0.548-0.062c-0.176,0.104-0.263,0.31-0.214,0.508L25.966,15.589l-0.314,0.336l11.006,10.312
			l-5.677,7.831l-1-4.067l3.906-2.999c0.133-0.102,0.2-0.268,0.175-0.434c-0.024-0.165-0.137-0.304-0.294-0.363l-5.197-1.946
			l-2.157-8.779L25.966,15.589l-0.314,0.336L25.966,15.589z"/>
	</g>
	<polygon clip-path="url(#SVGID_2_)" fill="#FFFFFF" points="44.586,19.884 43.731,20.685 43.913,22.774 44.799,22.324 	"/>
	<polygon clip-path="url(#SVGID_2_)" fill="#FFFFFF" points="42.873,30.158 42.387,30.949 43.942,32.201 44.184,31.214 	"/>
	<g clip-path="url(#SVGID_2_)">
		<defs>
			<rect id="SVGID_7_" x="25" y="14.397" width="85" height="21.205"/>
		</defs>
		<clipPath id="SVGID_8_">
			<use xlink:href="#SVGID_7_"  overflow="visible"/>
		</clipPath>
		<path clip-path="url(#SVGID_8_)" fill="#FFFFFF" d="M40.858,26.636l0.161,0.432l5.426-2.031c0.143-0.054,0.25-0.174,0.286-0.321
			l2.214-9.017c0.048-0.198-0.039-0.404-0.215-0.508c-0.177-0.103-0.398-0.078-0.547,0.062L36.88,25.842
			C36.71,26,36.686,26.26,36.822,26.448l6.499,8.964c0.105,0.145,0.286,0.215,0.461,0.182c0.176-0.034,0.316-0.168,0.359-0.342
			l1.308-5.324c0.043-0.177-0.022-0.364-0.167-0.475l-4.144-3.183L40.858,26.636l0.161,0.432L40.858,26.636L40.577,27l3.905,3
			l-0.999,4.066l-5.677-7.83l9.874-9.251l-1.786,7.272l-5.198,1.946c-0.157,0.06-0.269,0.198-0.294,0.363
			c-0.025,0.166,0.042,0.331,0.175,0.433L40.858,26.636z"/>
	</g>
	<path clip-path="url(#SVGID_2_)" fill="#FFFFFF" d="M29.623,22.819l-0.155,1.774l0.896,0.335l0.145-1.66L29.623,22.819z
		 M36.424,26.268l-4.472,3.601l0.487,0.79l2.433-1.959l1.707-2.355L36.424,26.268z"/>
	<g clip-path="url(#SVGID_2_)">
		<defs>
			<rect id="SVGID_9_" x="25" y="14.397" width="85" height="21.205"/>
		</defs>
		<clipPath id="SVGID_10_">
			<use xlink:href="#SVGID_9_"  overflow="visible"/>
		</clipPath>
		<path clip-path="url(#SVGID_10_)" fill="#FFFFFF" d="M26.934,21.457l0.103,0.42l1.444,2.347l0.089,0.033l-0.553-2.251
			L26.934,21.457z M33.794,26.215L33.794,26.215L33.794,26.215 M33.796,26.216c0.099,0.045,0.177,0.122,0.224,0.216
			C33.973,26.338,33.895,26.261,33.796,26.216 M36.579,26.344l-1.707,2.355l-1.968,2.716l0.522,0.849l2.474-3.413l0.805-2.441
			L36.579,26.344z M34.02,26.433L34.02,26.433L34.02,26.433 M34.021,26.436L34.021,26.436L34.021,26.436 M34.063,26.694
			L34.063,26.694L34.063,26.694 M34.063,26.696C34.063,26.696,34.063,26.696,34.063,26.696S34.063,26.696,34.063,26.696
			 M34.063,26.697c-0.01,0.074-0.038,0.144-0.081,0.204C34.025,26.841,34.053,26.771,34.063,26.697 M33.982,26.902
			C33.982,26.902,33.982,26.902,33.982,26.902C33.982,26.902,33.982,26.902,33.982,26.902 M33.98,26.904L33.98,26.904L33.98,26.904
			 M33.841,27.036l-2.466,1.893h0L33.841,27.036z"/>
		<path clip-path="url(#SVGID_10_)" fill="#FFFFFF" d="M25.46,20.193l-0.392,0.242l2.711,4.405c0.054,0.088,0.135,0.154,0.23,0.19
			l4.658,1.745l-2.184,1.674c-0.188,0.144-0.236,0.406-0.112,0.607l3.667,5.96c0.093,0.153,0.268,0.238,0.445,0.217
			c0.178-0.021,0.328-0.144,0.384-0.313l2.835-8.6c0.072-0.217-0.026-0.452-0.229-0.556l-11.806-5.982
			c-0.184-0.093-0.408-0.053-0.547,0.099s-0.162,0.378-0.053,0.554L25.46,20.193l-0.208,0.412l11.453,5.804l-2.401,7.281
			l-2.929-4.762L33.887,27c0.133-0.101,0.2-0.267,0.175-0.433c-0.024-0.165-0.137-0.304-0.294-0.363l-5.287-1.98l-2.629-4.271
			L25.46,20.193l-0.208,0.412L25.46,20.193z"/>
		<g opacity="0.3" clip-path="url(#SVGID_10_)">
			<g>
				<defs>
					<rect id="SVGID_11_" x="24.664" y="14.676" width="26.384" height="20.328"/>
				</defs>
				<clipPath id="SVGID_12_">
					<use xlink:href="#SVGID_11_"  overflow="visible"/>
				</clipPath>
				<path clip-path="url(#SVGID_12_)" fill="#FFFFFF" d="M47.675,20.866l-0.607,2.474l1.935-3.146L47.675,20.866z M26.934,21.457
					l-0.226-0.114l0.329,0.534L26.934,21.457z M29.709,21.831l0.169-1.945l-3.094-2.9l0.944,3.842L29.709,21.831z M31.716,31.24
					l-1.194,0.962l0.458,1.865l1.338-1.847L31.716,31.24z M30.835,19.52l4.457,4.175l-4.193-7.202L30.835,19.52z M34.304,33.691
					l1.596-4.841l-2.474,3.413L34.304,33.691z M41.331,32.666l-3.656-5.041l2.358,7.152L41.331,32.666z M39.174,23.692l4.456-4.174
					l-0.264-3.026L39.174,23.692z M43.483,34.066l0.458-1.865l-1.555-1.252l-0.534,0.868L43.483,34.066z M46.592,21.416l1.088-4.431
					l-3.094,2.898l0.213,2.44L46.592,21.416z"/>
			</g>
		</g>
		<g opacity="0.6" clip-path="url(#SVGID_10_)">
			<g>
				<defs>
					<rect id="SVGID_13_" x="25.973" y="18.868" width="22.664" height="13.177"/>
				</defs>
				<clipPath id="SVGID_14_">
					<use xlink:href="#SVGID_13_"  overflow="visible"/>
				</clipPath>
				<path clip-path="url(#SVGID_14_)" fill="#FFFFFF" d="M42.387,30.949l-2.796-2.251l2.262,3.119L42.387,30.949z M29.468,24.594
					l0.155-1.774l-1.605-0.813l0.553,2.251L29.468,24.594z M30.641,29.493L29.98,30l0.298,1.214l0.95-0.764L30.641,29.493z
					 M30.594,22.279l4.008,2.032l-3.869-3.626L30.594,22.279z M32.903,31.415l1.968-2.715l-2.433,1.958L32.903,31.415z
					 M38.661,25.436l5.252-2.661l-0.182-2.09L38.661,25.436z M44.184,31.214L44.482,30l-1.027-0.789l-0.582,0.947L44.184,31.214z
					 M46.592,21.416l-1.793,0.908l0.198,2.271l0.897-0.337L46.592,21.416z"/>
			</g>
		</g>
		<g opacity="0.9" clip-path="url(#SVGID_10_)">
			<g>
				<defs>
					<rect id="SVGID_15_" x="28.318" y="20.956" width="17.828" height="9.43"/>
				</defs>
				<clipPath id="SVGID_16_">
					<use xlink:href="#SVGID_15_"  overflow="visible"/>
				</clipPath>
				<path clip-path="url(#SVGID_16_)" fill="#FFFFFF" d="M31.952,29.868l4.472-3.601l-5.917-2.999l-0.145,1.66l3.405,1.275
					c0.009,0.004,0.017,0.007,0.025,0.01c0,0.001,0,0.001,0.001,0.001s0,0,0,0c0,0.001,0,0.001,0,0.001
					c0.099,0.045,0.178,0.122,0.224,0.216c0,0,0,0,0,0.001l0,0.001c0,0.001,0,0.001,0,0.002c0,0,0,0,0,0
					c0.02,0.042,0.034,0.086,0.041,0.132c0.007,0.043,0.007,0.085,0.001,0.127v0.001v0.001c0,0,0,0,0,0.001l0,0
					c-0.01,0.074-0.038,0.144-0.08,0.204c0,0.001,0,0.001,0,0.001c0,0,0,0-0.001,0.001c0,0.001,0,0.001-0.001,0.001l0,0
					c-0.026,0.036-0.057,0.068-0.094,0.096l-0.046,0.036l-2.466,1.893L31.952,29.868z M44.101,24.93l-0.188-2.155l-5.252,2.661
					l-0.764,0.716l4.976,4.007l0.582-0.947L40.577,27c-0.002-0.002-0.005-0.004-0.007-0.005h-0.001c0,0,0,0-0.001-0.001l0,0
					c-0.041-0.033-0.075-0.071-0.102-0.114c0-0.002,0-0.002,0-0.002v-0.001c0-0.001,0-0.001-0.001-0.001c0,0,0-0.001,0-0.002l0,0
					c-0.036-0.059-0.059-0.125-0.065-0.194l0,0l0,0c0-0.001,0-0.002,0-0.002l0,0c-0.003-0.037-0.002-0.073,0.003-0.11
					c0.006-0.041,0.018-0.08,0.034-0.118l0,0c0-0.001,0-0.001,0.001-0.002c0.037-0.084,0.1-0.155,0.178-0.203c0,0,0,0,0-0.001
					c0.026-0.015,0.052-0.028,0.081-0.039L44.101,24.93z"/>
			</g>
		</g>
		<path clip-path="url(#SVGID_10_)" fill="#FFFFFF" d="M44.799,22.324l-0.886,0.45l0.188,2.155l-3.405,1.274
			c-0.028,0.011-0.055,0.024-0.081,0.039c0.026-0.015,0.052-0.028,0.081-0.039l4.301-1.609L44.799,22.324z M37.897,26.151
			l-0.091,0.085l1.785,2.462l2.796,2.251l0.486-0.791L37.897,26.151z M40.616,26.243C40.616,26.244,40.616,26.244,40.616,26.243
			C40.616,26.244,40.616,26.244,40.616,26.243 M40.438,26.447c0,0.001-0.001,0.001-0.001,0.002
			C40.437,26.448,40.437,26.448,40.438,26.447 M40.437,26.449c-0.016,0.038-0.028,0.077-0.034,0.118
			c-0.006,0.037-0.007,0.073-0.003,0.11c-0.003-0.037-0.002-0.073,0.003-0.11C40.409,26.526,40.42,26.487,40.437,26.449
			 M40.399,26.678c0,0,0,0.001,0,0.002C40.399,26.679,40.399,26.678,40.399,26.678 M40.399,26.68L40.399,26.68L40.399,26.68
			 M40.464,26.874L40.464,26.874L40.464,26.874 M40.465,26.876C40.465,26.876,40.465,26.876,40.465,26.876
			C40.465,26.876,40.465,26.876,40.465,26.876 M40.466,26.878c0,0,0,0,0,0.002C40.466,26.878,40.466,26.878,40.466,26.878
			 M40.466,26.88c0.027,0.043,0.061,0.081,0.102,0.114C40.527,26.961,40.493,26.923,40.466,26.88 M40.568,26.994
			C40.568,26.995,40.569,26.995,40.568,26.994C40.569,26.995,40.568,26.995,40.568,26.994 M40.57,26.995L40.57,26.995z"/>
		<path clip-path="url(#SVGID_10_)" fill="#FFFFFF" d="M47.675,20.866l-1.083,0.55l-0.698,2.842l-0.897,0.337l-4.301,1.609
			c-0.028,0.011-0.055,0.024-0.08,0.039c0,0.001,0,0.001,0,0.001c-0.079,0.048-0.141,0.119-0.178,0.203
			c0,0.001-0.001,0.001-0.001,0.002c-0.017,0.038-0.028,0.077-0.034,0.118c-0.006,0.037-0.007,0.073-0.003,0.11l0,0v0.001
			c0,0.001,0,0.001,0,0.001v0.001c0.006,0.068,0.029,0.135,0.064,0.193h0c0,0.001,0,0.002,0.001,0.002c0,0,0,0,0,0.001v0.001
			c0,0,0,0,0,0.002c0.027,0.043,0.061,0.081,0.102,0.114l0,0c0.001,0,0.001,0.001,0.001,0.001c0,0,0,0,0.001,0
			c0.003,0.001,0.005,0.003,0.007,0.005l0.281-0.364L40.577,27l2.878,2.211l0.243-0.396l-2.84-2.18l5.435-2.035l0.774-1.261
			L47.675,20.866z M38.661,25.436l-0.999,0.507c0.066,0.11,0.084,0.248,0.041,0.379l-0.229,0.694l0.2,0.609l3.656,5.041l0.521-0.849
			l-2.262-3.119l-1.785-2.462l0.091-0.085L38.661,25.436z"/>
		<path clip-path="url(#SVGID_10_)" fill="#FFFFFF" d="M37.662,25.941l-0.464,0.235l0.277,0.839l0.229-0.694
			C37.746,26.19,37.728,26.053,37.662,25.941"/>
		<path clip-path="url(#SVGID_10_)" fill="#FFFFFF" d="M40.858,26.636l0.161,0.432l5.436-2.036c0.096-0.036,0.177-0.104,0.231-0.19
			l2.71-4.405c0.107-0.176,0.086-0.402-0.054-0.554s-0.363-0.191-0.547-0.099l-11.806,5.982c-0.203,0.104-0.3,0.339-0.229,0.556
			l2.835,8.6c0.056,0.17,0.206,0.292,0.384,0.313c0.178,0.021,0.352-0.063,0.446-0.217l3.665-5.96
			c0.124-0.202,0.075-0.464-0.112-0.607l-2.841-2.18L40.858,26.636l0.161,0.432L40.858,26.636L40.577,27l2.511,1.929L40.16,33.69
			l-2.401-7.281l9.997-5.067l-1.772,2.882l-5.287,1.98c-0.157,0.06-0.269,0.198-0.294,0.363c-0.025,0.166,0.042,0.332,0.175,0.433
			L40.858,26.636z"/>
	</g>
</g>
</svg>
