<?xml version="1.0" encoding="utf-8"?>
<!-- Generator: Adobe Illustrator 16.0.3, SVG Export Plug-In . SVG Version: 6.00 Build 0)  -->
<!DOCTYPE svg PUBLIC "-//W3C//DTD SVG 1.1//EN" "http://www.w3.org/Graphics/SVG/1.1/DTD/svg11.dtd">
<svg version="1.1" id="Layer_1" xmlns="http://www.w3.org/2000/svg" xmlns:xlink="http://www.w3.org/1999/xlink" x="0px" y="0px"
	 width="22px" height="24px" viewBox="0 0 22 24" enable-background="new 0 0 22 24" xml:space="preserve">
<g>
	<g>
		<path fill-rule="evenodd" clip-rule="evenodd" fill="#0497BB" d="M16,6c0-2-2-5-5-5S6,4,6,6c0,1,2,0,5,2C14,6,16,7,16,6z"/>
		<path fill-rule="evenodd" clip-rule="evenodd" fill="#0497BB" d="M7,21c-1,0-3,0-4,0s-1,0-1-1c-0.003-0.027,0-2,0-2h2v1
			c1,0,2,0,3,0s3,1,4,2l-1-8v-2c-1-1-2-1-3-1s-2,0-3,0v2H2V9c0-1,0-1,1-1c0,0,3,0,4,0s3,1,4,2c1-1,3-2,4-2s4,0,4,0c1,0,1,0,1,1v3h-2
			v-2c0,0-2,0-3,0s-2,0-3,1v2l-1,8c1-1,3-2,4-2s2,0,3,0v-1h2c0,0,0.004,1.973,0,2c0,1,0,1-1,1s-3,0-4,0s-2,0-3,1h-2C9,21,8,21,7,21z
			 M18,17c0,0,1,1,2,0c1-1,1-1.5,1-2s0-1-1-2c-1-1-2,0-2,0V17z M4,13c0,0-1-1-2,0c-1,1-1,1.5-1,2s0,1,1,2c1,1,2,0,2,0V13z"/>
	</g>
	<rect x="10" y="12" fill-rule="evenodd" clip-rule="evenodd" fill="#0497BB" width="2" height="11"/>
</g>
</svg>
