<?xml version="1.0" encoding="utf-8"?>
<!-- Generator: Adobe Illustrator 16.0.3, SVG Export Plug-In . SVG Version: 6.00 Build 0)  -->
<!DOCTYPE svg PUBLIC "-//W3C//DTD SVG 1.1//EN" "http://www.w3.org/Graphics/SVG/1.1/DTD/svg11.dtd">
<svg version="1.1" id="Layer_1" xmlns="http://www.w3.org/2000/svg" xmlns:xlink="http://www.w3.org/1999/xlink" x="0px" y="0px"
	 width="29px" height="24px" viewBox="0 0 29 24" enable-background="new 0 0 29 24" xml:space="preserve">
<g>
	<path fill-rule="evenodd" clip-rule="evenodd" fill="#0497BB" d="M14,5c-4.418,0-8,4.029-8,9c0,4.972,3.582,9,8,9
		c4.419,0,8-4.028,8-9C22,9.029,18.419,5,14,5z M14,21c-3.314,0-6-3.134-6-7s2.686-6.999,6-6.999c3.313,0,6,3.133,6,6.999
		S17.313,21,14,21z"/>
	<polygon fill-rule="evenodd" clip-rule="evenodd" fill="#0497BB" points="14,1 1,6 1,8 5,8 5,12 23,12 23,8 27,8 27,6 	"/>
	<polygon fill-rule="evenodd" clip-rule="evenodd" fill="#0497BB" points="28,14 25,14 26,11 26,8 27,8 27,11 	"/>
</g>
</svg>
