<?xml version="1.0" encoding="utf-8"?>
<!-- Generator: Adobe Illustrator 16.0.3, SVG Export Plug-In . SVG Version: 6.00 Build 0)  -->
<!DOCTYPE svg PUBLIC "-//W3C//DTD SVG 1.1//EN" "http://www.w3.org/Graphics/SVG/1.1/DTD/svg11.dtd">
<svg version="1.1" id="Layer_1" xmlns="http://www.w3.org/2000/svg" xmlns:xlink="http://www.w3.org/1999/xlink" x="0px" y="0px"
	 width="166px" height="49px" viewBox="0 0 166 49" enable-background="new 0 0 166 49" xml:space="preserve">
<g id="pillango_2_">
	<g>
		<g>
			<polygon opacity="0.2" fill="#FFF000" points="14.004,2.606 12.047,25.045 20.231,28.111 11.172,35.065 10.628,41.308 
				28.265,27.106 			"/>
			<polygon opacity="0.2" fill="#FFF000" points="36.133,28.111 44.318,25.045 42.362,2.606 28.1,27.106 45.736,41.308 
				45.191,35.064 			"/>
			<polygon opacity="0.2" fill="#FFF000" points="3.479,3.886 8.336,23.654 20.231,28.111 11.143,35.088 14.012,46.763 
				28.262,27.108 			"/>
			<polygon opacity="0.2" fill="#FFF000" points="36.133,28.111 48.029,23.654 52.887,3.886 28.102,27.108 42.354,46.763 
				45.221,35.088 			"/>
			<polygon opacity="0.2" fill="#FFF000" points="2.369,13.982 8.313,23.646 20.231,28.111 14.001,32.892 22.039,45.961 
				28.258,27.103 			"/>
			<polygon opacity="0.3" fill="#FFF000" points="36.133,28.111 48.053,23.646 53.996,13.982 28.107,27.103 34.325,45.961 
				42.363,32.894 			"/>
		</g>
		<g>
			<path fill="#FFF000" d="M10.133,42.239l0.645-7.392l8.611-6.611l-7.781-2.915l2.098-24.049l15.096,25.931L10.133,42.239z
				 M11.568,35.283l-0.445,5.095l16.605-13.374L14.303,3.941l-1.816,20.826l8.588,3.219L11.568,35.283z"/>
			<path fill="#FFF000" d="M46.231,42.239L27.564,27.203L42.661,1.272l2.097,24.049l-7.782,2.915l8.612,6.611L46.231,42.239z
				 M28.637,27.005L45.24,40.378l-0.444-5.096l-9.505-7.296l8.589-3.219L42.063,3.941L28.637,27.005z"/>
			<path fill="#FFF000" d="M13.822,47.728l-3.145-12.803l8.711-6.689L7.986,23.965L2.746,2.631l26.064,24.423L13.822,47.728z
				 M11.609,35.25L14.2,45.799l13.514-18.64L4.213,5.139l4.473,18.206l12.389,4.642L11.609,35.25z"/>
			<path fill="#FFF000" d="M42.542,47.728L27.555,27.054L53.619,2.631l-5.24,21.334l-11.403,4.271l8.71,6.689L42.542,47.728z
				 M28.652,27.159l13.512,18.64l2.59-10.547l-9.463-7.266l12.389-4.642l4.473-18.206L28.652,27.159z"/>
			<path fill="#FFF000" d="M22.154,46.936l-8.699-14.144l5.934-4.556L8.035,23.984L1.25,12.951l27.512,13.944L22.154,46.936z
				 M14.55,32.994l7.376,11.992l5.827-17.675L3.488,15.014l5.104,8.296l12.482,4.677L14.55,32.994z"/>
			<path fill="#FFF000" d="M34.211,46.936l-6.607-20.041l27.512-13.944L48.33,23.984l-0.133,0.05l-11.222,4.202l5.935,4.556
				L34.211,46.936z M28.613,27.311l5.826,17.675l7.377-11.992l-6.526-5.007l12.484-4.677l5.102-8.296L28.613,27.311z"/>
		</g>
	</g>
	<g>
		<g>
			<g>
				<path fill="#FFF000" d="M69.088,9.614h5.209c2.059,0,3.92,0.833,5.271,2.182c1.349,1.351,2.183,3.211,2.183,5.27l-0.031,7.35
					l0.697,0.698c0.057-0.069,0.094-0.156,0.094-0.251l0.032-7.794v-0.001c0-4.554-3.69-8.246-8.245-8.246h-6L69.088,9.614z"/>
				<path fill="#FFF000" d="M82.443,25.726l-1.139-1.139l0.032-7.522c0-1.878-0.733-3.646-2.062-4.976
					c-1.332-1.33-3.098-2.062-4.979-2.062h-5.381l-1.617-1.618h6.998c4.773,0,8.658,3.885,8.658,8.659l-0.033,7.797
					c-0.002,0.187-0.068,0.37-0.189,0.513L82.443,25.726z"/>
			</g>
			<g>
				<path fill="#FFF000" d="M66.768,25.034c0.026-0.051,0.042-0.111,0.042-0.17l0.028-13.078l-0.791-0.791L66.02,24.284
					L66.768,25.034z"/>
				<path fill="#FFF000" d="M66.891,25.739l-1.285-1.284l0.029-14.456l1.615,1.615l-0.027,13.25c0,0.119-0.027,0.236-0.081,0.349
					L66.891,25.739z"/>
			</g>
			<g>
				<path fill="#FFF000" d="M98.743,24.466h-3.836c-2.061,0-3.921-0.834-5.272-2.183c-1.35-1.351-2.182-3.212-2.182-5.271
					c0-0.012-0.004-0.021-0.004-0.033c0-0.01,0.004-0.021,0.004-0.033c0-2.06,0.832-3.921,2.182-5.271
					c1.352-1.35,3.212-2.183,5.272-2.184c2.058,0.001,3.92,0.834,5.271,2.184c1.262,1.263,2.072,2.973,2.172,4.874h-7.102
					c-0.088,0-0.169,0.031-0.235,0.08l0.712,0.713h6.944c0.015,0,0.029-0.003,0.044-0.003c0.014,0,0.028,0.003,0.043,0.003
					c0.219,0,0.396-0.178,0.396-0.396c0-4.555-3.692-8.246-8.245-8.246c-4.556,0-8.247,3.691-8.247,8.246
					c0,0.011,0.003,0.022,0.004,0.033C86.663,16.99,86.66,17,86.66,17.012c0,4.511,3.621,8.171,8.115,8.243
					c0.012,0,0.021,0.004,0.033,0.004h4.725L98.743,24.466z"/>
				<path fill="#FFF000" d="M100.532,25.671l-5.785-0.003c-4.688-0.085-8.5-3.964-8.5-8.656l0.001-0.036
					c-0.001-0.01-0.001-0.02-0.001-0.03c0-4.774,3.885-8.659,8.66-8.659c4.773,0,8.658,3.885,8.658,8.659
					c0,0.445-0.362,0.809-0.81,0.809c-0.014,0-0.029-0.001-0.043-0.002c-0.015,0.001-0.029,0.002-0.044,0.002h-7.114l-1.174-1.173
					l0.385-0.284c0.143-0.106,0.309-0.162,0.482-0.162h6.653c-0.18-1.573-0.887-3.039-2.016-4.168
					c-1.33-1.331-3.098-2.063-4.979-2.064c-1.88,0.001-3.648,0.733-4.979,2.064c-1.329,1.33-2.061,3.098-2.061,4.978l-0.002,0.038
					c0.002,0.01,0.002,0.019,0.002,0.028c0,1.879,0.731,3.649,2.062,4.979c1.329,1.33,3.099,2.062,4.979,2.062h4.007L100.532,25.671
					z M102.749,16.962l-0.021,0.377l0.05-0.377H102.749z"/>
			</g>
			<g>
				<path fill="#FFF000" d="M128.52,13.614v11.165l-0.76,0.758c-0.021-0.048-0.033-0.101-0.033-0.159V14.405L128.52,13.614z"/>
				<path fill="#FFF000" d="M127.623,26.258l-0.242-0.558c-0.045-0.103-0.066-0.21-0.066-0.322V14.234l1.617-1.619v12.333
					L127.623,26.258z"/>
			</g>
			<g>
				<path fill="#FFF000" d="M128.512,9.137c0.004,0.026,0.008,0.054,0.008,0.08v1.312l-0.793,0.792V9.92L128.512,9.137z"/>
				<path fill="#FFF000" d="M127.314,12.318v-2.57l1.436-1.437l0.164,0.737c0.012,0.055,0.018,0.113,0.018,0.169V10.7
					L127.314,12.318z"/>
			</g>
			<g>
				<path fill="#FFF000" d="M110.469,13.04c-0.018-0.065-0.045-0.126-0.096-0.178l-2.944-2.935h-1.122l3.124,3.113H110.469z"/>
				<path fill="#FFF000" d="M111.008,13.454h-1.748l-3.953-3.94h2.293l3.064,3.055c0.098,0.098,0.165,0.219,0.204,0.364
					L111.008,13.454z"/>
			</g>
			<g>
				<path fill="#FFF000" d="M107.167,25.321l7.244-7.273c0.013,0.019,0.021,0.039,0.036,0.054l7.189,7.219h1
					c-0.012-0.079-0.041-0.159-0.104-0.222l-7.524-7.557c-0.018-0.017-0.038-0.023-0.058-0.036l7.547-7.579h-1.118l-15.109,15.172
					c-0.061,0.063-0.092,0.143-0.104,0.222H107.167z"/>
				<path fill="#FFF000" d="M123.113,25.734h-1.648l-7.063-7.091l-7.063,7.091h-1.65l0.07-0.473
					c0.025-0.178,0.103-0.336,0.221-0.454l15.228-15.293h2.286l-7.949,7.981l7.28,7.313c0.118,0.119,0.194,0.277,0.221,0.454
					L123.113,25.734z"/>
			</g>
			<g>
				<path fill="#FFF000" d="M135.163,9.128c0.011,0.035,0.019,0.071,0.019,0.109v8.292c0,2.059,0.834,3.921,2.182,5.271
					c1.352,1.35,3.212,2.184,5.271,2.184c2.061,0,3.92-0.834,5.27-2.184c1.352-1.35,2.186-3.211,2.186-5.271V9.834l0.764-0.763
					c0.016,0.045,0.027,0.095,0.027,0.146v8.312c0,4.554-3.691,8.246-8.246,8.245c-4.553,0-8.246-3.691-8.246-8.245V9.9
					L135.163,9.128z"/>
				<path fill="#FFF000" d="M142.635,26.187L142.635,26.187c-4.773,0-8.658-3.882-8.658-8.658v-7.8l1.391-1.391l0.193,0.674
					c0.023,0.077,0.035,0.151,0.035,0.224v8.292c0,1.88,0.731,3.648,2.061,4.979c1.33,1.331,3.1,2.063,4.979,2.063
					c1.881,0,3.649-0.732,4.979-2.063c1.33-1.331,2.063-3.099,2.063-4.979V9.663l1.33-1.33l0.23,0.586
					c0.039,0.096,0.056,0.197,0.056,0.297v8.312C151.292,22.305,147.41,26.187,142.635,26.187z"/>
			</g>
			<g>
				<path fill="#FFF000" d="M159.941,16.912c0,0-0.012-0.002-0.02-0.002c-1.005,0-1.914-0.406-2.573-1.065
					c-0.659-0.662-1.067-1.569-1.067-2.575s0.408-1.915,1.067-2.576c0.659-0.659,1.568-1.066,2.573-1.066h1.561
					c0.07,0,0.137-0.02,0.193-0.05l-0.74-0.741h-1.014c-2.447,0-4.432,1.985-4.432,4.433c0,2.435,1.965,4.41,4.396,4.43
					c0.007,0,0.012,0.004,0.018,0.004c1.008,0,1.914,0.405,2.574,1.064c0.66,0.662,1.067,1.569,1.067,2.575
					s-0.407,1.914-1.067,2.574c-0.66,0.661-1.566,1.067-2.574,1.067h-4.037l0.793,0.791h3.244c2.447,0,4.432-1.983,4.432-4.432
					C164.336,18.907,162.373,16.932,159.941,16.912"/>
				<path fill="#FFF000" d="M159.904,26.187h-3.416l-1.619-1.617h5.035c0.861,0,1.672-0.336,2.283-0.946
					c0.609-0.61,0.945-1.421,0.945-2.282c0-0.862-0.336-1.672-0.945-2.281c-0.611-0.61-1.422-0.946-2.283-0.946l-0.053-0.003
					c-2.636-0.039-4.774-2.205-4.774-4.842c0-2.672,2.173-4.845,4.845-4.847h1.186l1.246,1.248l-0.477,0.266
					c-0.121,0.07-0.257,0.104-0.394,0.104h-1.561c-0.861,0.002-1.672,0.338-2.281,0.947c-0.609,0.61-0.945,1.421-0.945,2.282
					c0,0.861,0.336,1.672,0.945,2.283c0.609,0.608,1.42,0.943,2.281,0.943l0.045,0.002c2.641,0.035,4.783,2.203,4.783,4.844
					C164.75,24.014,162.576,26.187,159.904,26.187z"/>
			</g>
		</g>
		<g>
			<path fill="#FFF000" d="M103.128,39.697c-0.229,0-0.413-0.186-0.413-0.414v-3.807c0-0.228,0.185-0.414,0.413-0.414
				c0.228,0,0.413,0.186,0.413,0.414v3.807C103.541,39.511,103.355,39.697,103.128,39.697z"/>
			<path fill="#FFF000" d="M98.533,42.139H96.8c-0.229,0-0.413-0.186-0.413-0.414s0.184-0.414,0.413-0.414h1.733
				c0.229,0,0.414,0.186,0.414,0.414S98.762,42.139,98.533,42.139z"/>
			<path fill="#FFF000" d="M96.878,42.139c-3.675,0-6.663-2.989-6.663-6.663c0-0.228,0.185-0.414,0.413-0.414
				c0.228,0,0.413,0.186,0.413,0.414c0,3.218,2.619,5.836,5.837,5.836c0.228,0,0.413,0.186,0.413,0.414S97.105,42.139,96.878,42.139
				z"/>
			<path fill="#FFF000" d="M103.128,35.837c-0.229,0-0.413-0.185-0.413-0.414c0-3.219-2.619-5.836-5.837-5.836
				c-3.219,0-5.837,2.618-5.837,5.836c0,0.229-0.185,0.414-0.413,0.414c-0.229,0-0.413-0.185-0.413-0.414
				c0-3.675,2.988-6.664,6.663-6.664s6.663,2.989,6.663,6.664C103.541,35.652,103.355,35.837,103.128,35.837z"/>
			<path fill="#FFF000" d="M163.984,35.89h-3.807c-0.229,0-0.414-0.187-0.414-0.414c0-0.228,0.185-0.414,0.414-0.414h3.807
				c0.229,0,0.413,0.186,0.413,0.414C164.397,35.703,164.213,35.89,163.984,35.89z"/>
			<path fill="#FFF000" d="M159.458,29.586h-1.733c-0.229,0-0.413-0.187-0.413-0.414c0-0.229,0.185-0.414,0.413-0.414h1.733
				c0.229,0,0.414,0.185,0.414,0.414C159.873,29.4,159.688,29.586,159.458,29.586z"/>
			<path fill="#FFF000" d="M151.553,35.837c-0.229,0-0.414-0.185-0.414-0.414c0-3.675,2.99-6.664,6.664-6.664
				c0.229,0,0.414,0.185,0.414,0.414c0,0.227-0.186,0.414-0.414,0.414c-3.217,0-5.836,2.618-5.836,5.836
				C151.967,35.652,151.781,35.837,151.553,35.837z"/>
			<path fill="#FFF000" d="M157.803,42.139c-3.674,0-6.664-2.989-6.664-6.663c0-0.228,0.186-0.414,0.414-0.414
				s0.414,0.186,0.414,0.414c0,3.218,2.619,5.836,5.836,5.836c3.219,0,5.838-2.618,5.838-5.836c0-0.228,0.184-0.414,0.412-0.414
				s0.414,0.186,0.414,0.414C164.467,39.15,161.477,42.139,157.803,42.139z"/>
			<path fill="#FFF000" d="M88.354,35.837h-6.447c-0.229,0-0.414-0.185-0.414-0.414c0-0.228,0.186-0.413,0.414-0.413h6.447
				c0.227,0,0.413,0.185,0.413,0.413C88.767,35.652,88.58,35.837,88.354,35.837z"/>
			<path fill="#FFF000" d="M86.466,42.139h-4.372c-0.229,0-0.414-0.186-0.414-0.414s0.186-0.414,0.414-0.414h4.372
				c0.229,0,0.413,0.186,0.413,0.414S86.694,42.139,86.466,42.139z"/>
			<path fill="#FFF000" d="M82.172,42.139c-3.674,0-6.663-2.989-6.663-6.663c0-0.228,0.184-0.414,0.413-0.414
				c0.229,0,0.412,0.186,0.412,0.414c0,3.218,2.62,5.836,5.838,5.836c0.229,0,0.414,0.186,0.414,0.414S82.4,42.139,82.172,42.139z"
				/>
			<path fill="#FFF000" d="M88.422,35.837c-0.229,0-0.413-0.185-0.413-0.414c0-3.219-2.618-5.836-5.837-5.836
				s-5.838,2.618-5.838,5.836c0,0.229-0.183,0.414-0.412,0.414c-0.229,0-0.413-0.185-0.413-0.414c0-3.675,2.989-6.664,6.663-6.664
				c3.674,0,6.662,2.989,6.662,6.664C88.833,35.652,88.65,35.837,88.422,35.837z"/>
			<path fill="#FFF000" d="M105.939,41.986c-0.229,0-0.412-0.186-0.412-0.414v-6.919c0-2.885,2.345-5.233,5.23-5.233h3.482
				c0.229,0,0.412,0.187,0.412,0.415s-0.184,0.413-0.412,0.413h-3.482c-2.43,0-4.404,1.978-4.404,4.406v6.919
				C106.354,41.801,106.167,41.986,105.939,41.986z"/>
			<path fill="#FFF000" d="M74.324,41.986h-3.482c-2.887,0-5.232-2.347-5.232-5.232v-7.958c0-0.229,0.186-0.414,0.414-0.414
				c0.227,0,0.414,0.185,0.414,0.414v7.958c0,2.429,1.975,4.404,4.404,4.404h3.482c0.229,0,0.412,0.185,0.412,0.415
				C74.736,41.801,74.553,41.986,74.324,41.986z"/>
			<path fill="#FFF000" d="M148.064,42.186c-0.229,0-0.414-0.186-0.414-0.412V35.94c0-3.218-2.619-5.837-5.836-5.837h-5.838v11.574
				c0,0.228-0.186,0.413-0.414,0.413c-0.229,0-0.412-0.185-0.412-0.413V29.276h6.664c3.674,0,6.663,2.99,6.663,6.664v5.833
				C148.477,42,148.291,42.186,148.064,42.186z"/>
			<path fill="#FFF000" d="M129.154,42.186c-0.227,0-0.412-0.186-0.412-0.412V35.94c0-3.218-2.619-5.837-5.838-5.837h-5.836v11.574
				c0,0.228-0.186,0.413-0.414,0.413c-0.227,0-0.412-0.185-0.412-0.413V29.276h6.662c3.676,0,6.664,2.99,6.664,6.664v5.833
				C129.568,42,129.385,42.186,129.154,42.186z"/>
			<path fill="#FFF000" d="M131.729,30.577c-0.229,0-0.413-0.187-0.413-0.414V29.27c0-0.229,0.184-0.414,0.413-0.414
				c0.227,0,0.413,0.184,0.413,0.414v0.893C132.143,30.39,131.957,30.577,131.729,30.577z"/>
			<path fill="#FFF000" d="M131.729,42.024c-0.229,0-0.413-0.186-0.413-0.413v-8.14c0-0.228,0.184-0.414,0.413-0.414
				c0.227,0,0.413,0.186,0.413,0.414v8.14C132.143,41.838,131.957,42.024,131.729,42.024z"/>
		</g>
	</g>
</g>
</svg>
