<?xml version="1.0" encoding="utf-8"?>
<!-- Generator: Adobe Illustrator 16.0.3, SVG Export Plug-In . SVG Version: 6.00 Build 0)  -->
<!DOCTYPE svg PUBLIC "-//W3C//DTD SVG 1.1//EN" "http://www.w3.org/Graphics/SVG/1.1/DTD/svg11.dtd">
<svg version="1.1" id="Layer_1" xmlns="http://www.w3.org/2000/svg" xmlns:xlink="http://www.w3.org/1999/xlink" x="0px" y="0px"
	 width="24px" height="24px" viewBox="0 0 24 24" enable-background="new 0 0 24 24" xml:space="preserve">
<path fill-rule="evenodd" clip-rule="evenodd" fill="#0497BB" d="M21,16v5c0,1-1,2-2,2H5c-1,0-2-1-2-2v-5h3v3h2v-3h8v3h2v-3H21z
	 M15,1c1,0,2,1,2,2v1h-2V3H9v1H7V3c0-1,1-2,2-2H15z M1,5c0,0,0,7,0,8s1,2,2,2s17,0,18,0s2-1,2-2s0-8,0-8H1z"/>
</svg>
