<?xml version="1.0" encoding="utf-8"?>
<!-- Generator: Adobe Illustrator 16.0.3, SVG Export Plug-In . SVG Version: 6.00 Build 0)  -->
<!DOCTYPE svg PUBLIC "-//W3C//DTD SVG 1.1//EN" "http://www.w3.org/Graphics/SVG/1.1/DTD/svg11.dtd">
<svg version="1.1" id="Layer_1" xmlns="http://www.w3.org/2000/svg" xmlns:xlink="http://www.w3.org/1999/xlink" x="0px" y="0px"
	 width="18px" height="24px" viewBox="0 0 18 24" enable-background="new 0 0 18 24" xml:space="preserve">
<path fill-rule="evenodd" clip-rule="evenodd" fill="#0497BB" d="M11,23H7v-3h4V23z M1,9c0,5,6,10,6,10h4c0,0,6-5,6-10c0-4-3-8-8-8
	S1,5,1,9z M7,3c0,0-4,3-4,6s4,8,4,8s-2-6-2-8S7,3,7,3z M9,3c0,0-2,3-2,6s2,8,2,8s2-5,2-8S9,3,9,3z M11,17c0,0,4-5,4-8s-3-6-3-6
	s1,4,1,6S11,17,11,17z"/>
</svg>
