<?xml version="1.0" encoding="utf-8"?>
<!-- Generator: Adobe Illustrator 16.0.3, SVG Export Plug-In . SVG Version: 6.00 Build 0)  -->
<!DOCTYPE svg PUBLIC "-//W3C//DTD SVG 1.1//EN" "http://www.w3.org/Graphics/SVG/1.1/DTD/svg11.dtd">
<svg version="1.1" id="Layer_1" xmlns="http://www.w3.org/2000/svg" xmlns:xlink="http://www.w3.org/1999/xlink" x="0px" y="0px"
	 width="20px" height="24px" viewBox="0 0 20 24" enable-background="new 0 0 20 24" xml:space="preserve">
<path fill-rule="evenodd" clip-rule="evenodd" fill="#0497BB" d="M9,7C8,7,7,5,7,4c0-2,1-3,2-3l2,1c-1,0-2,1-2,2s1,3,1,3H9z M8,14
	c-1,0-1,0-1,1s2,1,2,1S9,14,8,14z M11,14c1,0,1,0,1,1s-2,1-2,1S10,14,11,14z M19,13c0,4-4,10-7,10c-1,0-1-1-2-1s-1,1-2,1
	c-3,0-7-6-7-10c0-2,3-5,5-5c1,0,3,1,4,1s2-1,3-1C15,8,19,11,19,13z M10,5C10,5,11,4,10,5c1,0,3,1,5,1s3-2,3-2s-2-2-4-2S10,5,10,5z
	 M10,11c1,0,2-1,3-1c2,0,4,2,4,3c0,4-3,8-4,8s-3-1-3-1s-2,1-3,1s-4-4-4-8c0-1,2-3,4-3C8,10,9,11,10,11z"/>
</svg>
