<?xml version="1.0" encoding="utf-8"?>
<!-- Generator: Adobe Illustrator 16.0.3, SVG Export Plug-In . SVG Version: 6.00 Build 0)  -->
<!DOCTYPE svg PUBLIC "-//W3C//DTD SVG 1.1//EN" "http://www.w3.org/Graphics/SVG/1.1/DTD/svg11.dtd">
<svg version="1.1" id="Layer_1" xmlns="http://www.w3.org/2000/svg" xmlns:xlink="http://www.w3.org/1999/xlink" x="0px" y="0px"
	 width="21px" height="24px" viewBox="0 0 21 24" enable-background="new 0 0 21 24" xml:space="preserve">
<path fill-rule="evenodd" clip-rule="evenodd" fill="#0497BB" d="M20,16c0-3-2-5-2-8c-1,0-3,2-3,3c0-5-4-6-3-10C7,3,5,6,5,12
	c0-2-2-1-2-3c-2,3-2,5-2,7s4,7,4,7h11C16,23,20,20,20,16z M6,21c-2.79-6,5.724-7.492,4-11c1.592,0.898,3.409,2.646,3.18,6.245
	c0.438-0.835,0.979-0.788,1.177-1.629C16.058,16.848,16.052,19,15,21H6z"/>
</svg>
