<?xml version="1.0" encoding="utf-8"?>
<!-- Generator: Adobe Illustrator 16.0.3, SVG Export Plug-In . SVG Version: 6.00 Build 0)  -->
<!DOCTYPE svg PUBLIC "-//W3C//DTD SVG 1.1//EN" "http://www.w3.org/Graphics/SVG/1.1/DTD/svg11.dtd">
<svg version="1.1" id="Layer_1" xmlns="http://www.w3.org/2000/svg" xmlns:xlink="http://www.w3.org/1999/xlink" x="0px" y="0px"
	 width="20px" height="20px" viewBox="0 0 20 20" enable-background="new 0 0 20 20" xml:space="preserve">
<g>
	<rect x="1" y="1" fill-rule="evenodd" clip-rule="evenodd" fill="#0497BB" width="18" height="2"/>
	<rect x="1" y="17" fill-rule="evenodd" clip-rule="evenodd" fill="#0497BB" width="18" height="2"/>
	<path fill="#0497BB" d="M3,17c0-3,4-5,4-7S3,6,3,3h2c0,2,4,4,4,7s-4,5-4,7H3z"/>
	<path fill="#0497BB" d="M17,17c0-3-4-5-4-7s4-4,4-7h-2c0,2-4,4-4,7s4,5,4,7H17z"/>
	<path fill-rule="evenodd" clip-rule="evenodd" fill="#0497BB" d="M7,2c0,2,3,4,3,6c0-2,3-4,3-6l0,0H7L7,2z"/>
</g>
</svg>
