<?xml version="1.0" encoding="utf-8"?>
<!-- Generator: Adobe Illustrator 16.0.3, SVG Export Plug-In . SVG Version: 6.00 Build 0)  -->
<!DOCTYPE svg PUBLIC "-//W3C//DTD SVG 1.1//EN" "http://www.w3.org/Graphics/SVG/1.1/DTD/svg11.dtd">
<svg version="1.1" id="Layer_1" xmlns="http://www.w3.org/2000/svg" xmlns:xlink="http://www.w3.org/1999/xlink" x="0px" y="0px"
	 width="21px" height="24px" viewBox="0 0 21 24" enable-background="new 0 0 21 24" xml:space="preserve">
<g>
	<circle fill="#0497BB" cx="12.5" cy="3.5" r="2.5"/>
	<polygon fill="#0497BB" points="5,13 3,13 6,7 11,7 11,9 7,9 	"/>
	<polygon fill="#0497BB" points="15,13 13,9 14,7 16,11 20,11 19,13 	"/>
	<polygon fill="#0497BB" points="7,20 1,20 2,18 6,18 7,16 9,16 	"/>
	<polygon fill="#0497BB" points="14,23 12,22 12,18 8,16 8,14 14,17 	"/>
	<polygon fill="#0497BB" points="14,7 10,7 7,16 11,16 	"/>
</g>
</svg>
