<?xml version="1.0" encoding="utf-8"?>
<!-- Generator: Adobe Illustrator 16.0.3, SVG Export Plug-In . SVG Version: 6.00 Build 0)  -->
<!DOCTYPE svg PUBLIC "-//W3C//DTD SVG 1.1//EN" "http://www.w3.org/Graphics/SVG/1.1/DTD/svg11.dtd">
<svg version="1.1" id="Layer_1" xmlns="http://www.w3.org/2000/svg" xmlns:xlink="http://www.w3.org/1999/xlink" x="0px" y="0px"
	 width="24px" height="18px" viewBox="0 0 24 18" enable-background="new 0 0 24 18" xml:space="preserve">
<path fill-rule="evenodd" clip-rule="evenodd" fill="#0497BB" d="M15,3h-5c0-1-1-2-2-2H3C2,1,1,2,1,3v11c0,1,1,2,2,2c0,0,0,0,4-7
	c1.569-2.746,3-3,4-3h6V5C17,4,16,3,15,3z M19,17H4c0,0,0,0,4-7c1.569-2.745,3-3,4-3c0,0,6.667,0,8,0c2,0,4.569,0.254,3,3
	C19,17,19,17,19,17z"/>
</svg>
