<?xml version="1.0" encoding="utf-8"?>
<!-- Generator: Adobe Illustrator 16.0.3, SVG Export Plug-In . SVG Version: 6.00 Build 0)  -->
<!DOCTYPE svg PUBLIC "-//W3C//DTD SVG 1.1//EN" "http://www.w3.org/Graphics/SVG/1.1/DTD/svg11.dtd">
<svg version="1.1" id="Layer_1" xmlns="http://www.w3.org/2000/svg" xmlns:xlink="http://www.w3.org/1999/xlink" x="0px" y="0px"
	 width="24px" height="24px" viewBox="0 0 24 24" enable-background="new 0 0 24 24" xml:space="preserve">
<path fill="#0497BB" d="M23,7v2h-3V7c0-1-1-3-3-3s-3,2-3,3v2c1,0,2,1,2,2v10c0,1-1,2-2,2H3c-1,0-2-1-2-2V11c0-1,1-2,2-2h8V7
	c0-3,2-6,6-6S23,4,23,7z M7,19h3l-1-3c0,0,1,0,1-1c0-2-3-2-3,0c0,1,1,1,1,1L7,19z"/>
</svg>
