<?xml version="1.0" encoding="utf-8"?>
<!-- Generator: Adobe Illustrator 16.0.3, SVG Export Plug-In . SVG Version: 6.00 Build 0)  -->
<!DOCTYPE svg PUBLIC "-//W3C//DTD SVG 1.1//EN" "http://www.w3.org/Graphics/SVG/1.1/DTD/svg11.dtd">
<svg version="1.1" id="Layer_1" xmlns="http://www.w3.org/2000/svg" xmlns:xlink="http://www.w3.org/1999/xlink" x="0px" y="0px"
	 width="120px" height="120px" viewBox="0 0 120 120" enable-background="new 0 0 120 120" xml:space="preserve">
<g>
	<rect fill-rule="evenodd" clip-rule="evenodd" fill="#DEDEDE" width="120" height="120"/>
	<path fill-rule="evenodd" clip-rule="evenodd" fill="#FFFFFF" d="M96,76v20.076C96,100,92,104,88,104H32c-4,0-8-4-8-8V76h10v5h2v7
		h8v-7h2v-5h28v5h2v7h8v-7h2v-5H96z M72,16c4,0,8,4,8,8v4h-8v-4H48v4h-8v-4c0-4,4-8,8-8H72z M16,32c0,0,0,24,0,32c0,4,4,8,8,8
		c19,0,54,0,72,0c4,0,8-4,8-8c0-8,0-32,0-32H16z"/>
</g>
</svg>
